<?xml version="1.0" encoding="UTF-8" standalone="no"?>
<!-- Generator: Adobe Illustrator 18.0.0, SVG Export Plug-In . SVG Version: 6.00 Build 0)  -->

<svg
   xmlns:dc="http://purl.org/dc/elements/1.1/"
   xmlns:cc="http://creativecommons.org/ns#"
   xmlns:rdf="http://www.w3.org/1999/02/22-rdf-syntax-ns#"
   xmlns:svg="http://www.w3.org/2000/svg"
   xmlns="http://www.w3.org/2000/svg"
   xmlns:sodipodi="http://sodipodi.sourceforge.net/DTD/sodipodi-0.dtd"
   xmlns:inkscape="http://www.inkscape.org/namespaces/inkscape"
   version="1.1"
   id="svg2"
   sodipodi:docname="halstuch_ohne_alles.svg"
   inkscape:version="0.92.1 r"
   x="0px"
   y="0px"
   viewBox="0 0 903 273"
   enable-background="new 0 0 903 273"
   xml:space="preserve"><metadata
     id="metadata50"><rdf:RDF><cc:Work
         rdf:about=""><dc:format>image/svg+xml</dc:format><dc:type
           rdf:resource="http://purl.org/dc/dcmitype/StillImage" /></cc:Work></rdf:RDF></metadata><defs
     id="defs48" /><path
     d="M124,19.3l106.8,17.9l-6-6.5c0,0,99.8,18.1,230,18.4C581,49.3,682.6,30.9,682.6,30.9l-2.2,5.4l105.2-17.4  c0,0-7.5,7.7-5.2,7.5c50.3-3.7,109.4-18.5,109.4-18.5s-54.3,51.3-134.9,54.7c-38.9,1.6-122,20.3-122,20.3L455,259.5L276.8,82.9  c0,0-100.8-19.3-116.5-19.5C76,62.3,19.7,8.2,19.7,8.2s42.2,11.7,112.2,18.6C134.5,27.1,124,19.3,124,19.3z"
     id="path2" /><sodipodi:namedview
     inkscape:pageopacity="0"
     inkscape:pageshadow="2"
     inkscape:window-width="1920"
     inkscape:window-height="1023"
     inkscape:window-x="1920"
     inkscape:window-y="0"
     inkscape:window-maximized="1"
     inkscape:current-layer="svg2"
     gridtolerance="10"
     showgrid="false"
     inkscape:zoom="1.0321152"
     borderopacity="1"
     bordercolor="#666666"
     objecttolerance="10"
     pagecolor="#ffffff"
     guidetolerance="10"
     inkscape:cx="298.83335"
     id="namedview4"
     inkscape:cy="180.37227"
     showguides="true"
     inkscape:guide-bbox="true"><sodipodi:guide
       position="454.90942,135.30815"
       orientation="1,0"
       id="guide52"
       inkscape:locked="false" /></sodipodi:namedview><path
     d="M 183.63808,63.775013 C 165.1497,61.289652 165.47846,60.442145 144.33546,59.830383 128.65298,59.376618 95.865788,49.648866 84.475471,44.906209 62.586204,35.792037 39.464242,18.677087 34.6,15.3 c 0,0 25.586664,4.179798 52.246487,8.758225 C 113.88355,28.701437 142.02436,33.771899 145.7,37.8 c 6.2,6.7 37.93808,25.975013 37.93808,25.975013 z"
     id="path11"
     inkscape:connector-curvature="0"
     style="fill:#ffffff"
     sodipodi:nodetypes="csscscc" /><path
     d="M 271.0819,78.867008 C 236.20165,69.106236 203.68766,68.294059 193.5435,64.421817 169.16003,55.114128 143.5919,30.263932 131.9,23.3 l 103.9,18.6 c 15.3,14.5 35.2819,36.967008 35.2819,36.967008 z"
     id="path19"
     inkscape:connector-curvature="0"
     style="fill:#ffffff"
     sodipodi:nodetypes="csccc" /><path
     d="m 726.7085,62.560649 c 13.89633,-2.675043 56.79118,-3.382898 84.32746,-13.64481 C 855.52047,32.33785 866.49738,23.076885 874.8,15.2 l -60.55663,10.241192 -42.44444,5.702961 c -16,13.4 -45.09043,31.416496 -45.09043,31.416496 z"
     id="path27"
     inkscape:connector-curvature="0"
     style="fill:#ffffff"
     sodipodi:nodetypes="cscccc" /><path
     d="M 638.67501,78.438818 C 659.10506,72.153413 698.55354,67.808271 716.87959,62.338281 731.56526,57.954877 762.64347,30.547869 777.6,23.3 L 676.61169,39.330858 c -15.3,14.5 -37.93668,39.10796 -37.93668,39.10796 z"
     id="path35"
     inkscape:connector-curvature="0"
     style="fill:#ffffff"
     sodipodi:nodetypes="csccc" /><path
     d="m 232.3,34.8 c 3.51941,1.18966 113.15513,17.472415 222.57388,17.204974 C 566.19459,51.732884 677.3,34.9 677.3,34.9 L 454.90942,256.26417 c 0.1,0 -230.1839,-228.760969 -222.60942,-221.46417 z"
     id="path37"
     inkscape:connector-curvature="0"
     style="fill:#ffffff"
     sodipodi:nodetypes="csccc" /></svg>