<?xml version="1.0" encoding="UTF-8" standalone="no"?>
<!-- Created with Inkscape (http://www.inkscape.org/) -->

<svg
   xmlns:dc="http://purl.org/dc/elements/1.1/"
   xmlns:cc="http://creativecommons.org/ns#"
   xmlns:rdf="http://www.w3.org/1999/02/22-rdf-syntax-ns#"
   xmlns:svg="http://www.w3.org/2000/svg"
   xmlns="http://www.w3.org/2000/svg"
   xmlns:sodipodi="http://sodipodi.sourceforge.net/DTD/sodipodi-0.dtd"
   xmlns:inkscape="http://www.inkscape.org/namespaces/inkscape"
   version="1.1"
   id="svg2"
   width="903"
   height="273"
   viewBox="0 0 903 273"
   sodipodi:docname="halstuch_gewickelt.svg"
   inkscape:version="0.92.1 r">
  <metadata
     id="metadata8">
    <rdf:RDF>
      <cc:Work
         rdf:about="">
        <dc:format>image/svg+xml</dc:format>
        <dc:type
           rdf:resource="http://purl.org/dc/dcmitype/StillImage" />
        <dc:title></dc:title>
      </cc:Work>
    </rdf:RDF>
  </metadata>
  <defs
     id="defs6" />
  <sodipodi:namedview
     pagecolor="#ffffff"
     bordercolor="#666666"
     borderopacity="1"
     objecttolerance="10"
     gridtolerance="10"
     guidetolerance="10"
     inkscape:pageopacity="0"
     inkscape:pageshadow="2"
     inkscape:window-width="1920"
     inkscape:window-height="1051"
     id="namedview4"
     showgrid="false"
     inkscape:zoom="2.9192625"
     inkscape:cx="330.68414"
     inkscape:cy="177.50027"
     inkscape:window-x="3840"
     inkscape:window-y="0"
     inkscape:window-maximized="1"
     inkscape:current-layer="svg2" />
  <path
     style="fill:#000000"
     d="m 365.21226,171.29593 -88.40038,-88.400371 -15.48985,-2.98518 c -8.51942,-1.64186 -22.91486,-3.90057 -31.98986,-5.01936 -9.075,-1.11879 -22.8,-3.12594 -30.5,-4.46034 -29.79207,-5.16292 -37.90203,-6.64668 -38.56328,-7.05536 -0.37702,-0.233 -7.15451,-1.12737 -15.0611,-1.98747 C 110.93347,57.659379 98.894939,54.724309 80.882755,45.705039 63.290331,36.895959 18.461395,9.4518795 19.6777,8.2355795 c 0.232782,-0.23279 4.412768,0.71087 9.288858,2.0969995 11.221897,3.19008 36.572872,7.555961 69.865616,12.0321 14.299996,1.9226 27.574996,3.71287 29.499996,3.97838 l 3.5,0.48273 -4.5,-4.03062 c -3.86309,-3.46014 -4.14616,-3.95701 -2,-3.51055 12.57118,2.61517 45.95096,8.37222 70.5,12.15922 16.5,2.54534 31.125,4.87851 32.5,5.18482 l 2.5,0.55694 -3,-3.27151 -3,-3.27151 5,0.68669 c 2.75,0.37768 14.45,1.99346 26,3.59062 134.93923,18.65967 255.89881,18.80642 395.02232,0.47924 10.98772,-1.44744 22.1766,-3.04864 24.86417,-3.55821 2.68757,-0.50957 5.80351,-0.92648 6.92431,-0.92648 1.96841,0 1.95795,0.085 -0.3071,2.49605 -1.2897,1.37283 -2.15565,2.67395 -1.92431,2.89138 0.69598,0.65413 81.74126,-12.51891 95.16002,-15.46724 4.80668,-1.05611 9.30668,-1.91898 10,-1.91749 0.69333,0.002 -0.76441,1.80441 -3.23941,4.00649 -3.87684,3.44934 -4.1538,3.93532 -2,3.50939 1.375,-0.27191 13.075,-1.85966 26,-3.52833 32.00217,-4.13161 64.35777,-9.60421 74.20005,-12.55013 4.48382,-1.3420695 8.6356,-2.4317195 9.22618,-2.4214495 3.23231,0.0562 -43.84684,29.1941995 -60.92623,37.7081295 -17.74415,8.84531 -31.42963,12.28849 -60.5,15.22139 -6.325,0.63813 -16,2.02697 -21.5,3.08632 -24.78717,4.77422 -44.85975,8.09909 -60.77737,10.06732 -9.47245,1.17128 -25.31176,3.6426 -35.19847,5.49182 l -17.97583,3.36224 -88.20792,88.203691 c -48.51436,48.51204 -88.84963,88.29788 -89.63394,88.41299 -0.7843,0.11512 -41.20618,-39.57087 -89.82638,-88.19108 z m 201.3716,-25.13317 C 627.49543,85.249329 677.33217,35.159759 677.33217,34.852589 c 0,-0.30716 -4.50641,0.15084 -10.01424,1.01779 l -10.01424,1.57627 -100.23762,100.233901 c -66.03285,66.0304 -100.91882,100.23389 -102.2339,100.23389 -1.31514,0 -36.20067,-34.20603 -102.24147,-100.25 L 252.34552,37.414439 242.33885,35.851699 c -5.50368,-0.8595 -10.00668,-1.31025 -10.00668,-1.00168 0,1.0216 221.4764,222.064421 222.5,222.064421 0.55186,0 50.84012,-49.83826 111.75169,-110.75168 z M 651.96484,38.213769 c -0.15724,-0.15724 -4.6877,0.32333 -10.0677,1.06793 l -9.78181,1.35382 -87.6437,87.639461 c -57.47456,57.47179 -88.32879,87.63946 -89.63394,87.63946 -1.30434,0 -32.32042,-30.28999 -89.99788,-87.89102 l -88.00764,-87.891031 -6.5,-0.64916 c -3.575,-0.35703 -8.075,-0.90327 -10,-1.21386 -3.1106,-0.50188 7.51415,10.46132 95.49811,98.540191 l 98.99811,99.10489 98.71117,-98.70739 C 607.8307,82.917989 652.12208,38.371009 651.96484,38.213769 Z m -24.63267,3.97137 c 0,-0.49347 -12.62475,0.47941 -17.02643,1.31207 -1.6925,0.32017 -27.6702,25.63689 -78.70004,76.697581 L 455.4321,196.41444 379.13213,120.6296 C 337.16715,78.947939 301.93217,44.469399 300.83217,44.010619 c -1.1,-0.45878 -5.6,-1.15096 -10,-1.53818 l -8,-0.70404 85.93429,86.009491 85.93428,86.00948 86.31572,-85.56427 C 588.4901,81.162749 627.33217,42.445669 627.33217,42.185139 Z m -173,79.729301 V 51.914439 H 441.7234 c -26.766,0 -113.58838,-5.03728 -131.89123,-7.6521 -3.82733,-0.54678 -0.80569,2.62779 69.99747,73.540331 40.6986,40.76147 74.1111,74.11177 74.25,74.11177 0.13889,0 0.25253,-31.5 0.25253,-70 z m 75.50253,-4.11177 c 70.80316,-70.912541 73.8248,-74.087111 69.99747,-73.540331 -18.30285,2.61482 -105.12523,7.6521 -131.89123,7.6521 h -12.60877 v 70.000001 c 0,38.5 0.11364,70 0.25253,70 0.1389,0 33.5514,-33.3503 74.25,-74.11177 z M 256.80916,71.821639 c -12.8557,-7.13558 -29.26778,-17.78216 -42.66709,-27.67833 -8.82961,-6.52117 -10.15207,-7.16085 -17.92149,-8.66866 -4.61362,-0.89536 -9.17591,-1.79557 -10.13841,-2.00045 -0.9625,-0.20489 -1.75,-0.25111 -1.75,-0.10271 0,0.1484 5.2875,4.31863 11.75,9.26717 24.89942,19.06628 44.81796,30.40545 58.53942,33.32517 13.75442,2.92674 14.01936,2.42506 2.18757,-4.14219 z m 397.77419,4.11446 c 10.37525,-2.29417 23.31951,-8.6501 39.3016,-19.298 11.53048,-7.68207 30.34806,-21.80488 30.41047,-22.82342 0.0202,-0.32987 -4.2621,0.21414 -9.51625,1.2089 -9.10298,1.72346 -9.98627,2.12668 -18.75,8.55939 -15.38337,11.29161 -38.45222,26.07492 -50.197,32.16793 -5.15618,2.67495 -2.73986,2.72609 8.75118,0.1852 z m -402.75503,-18.01161 -15.99615,-15.98995 -12.75,-2.34361 c -7.0125,-1.28899 -12.75,-2.2181 -12.75,-2.0647 0,0.64801 26.15884,19.19863 33.5,23.75663 9.87478,6.13109 21.66234,12.59868 22.99615,12.61751 0.54789,0.008 -6.20211,-7.18141 -15,-15.97588 z m 399.38074,11.80715 c 10.46776,-5.74365 22.44586,-13.49952 36.37311,-23.55175 6.4625,-4.66442 11.75,-8.58911 11.75,-8.72154 0,-0.13243 -5.68712,0.76737 -12.63805,1.99955 l -12.63804,2.24032 -16.10811,16.10811 c -8.85946,8.85946 -15.71524,16.10811 -15.23506,16.10811 0.48017,0 4.30344,-1.88226 8.49615,-4.1828 z m -418.25264,0.87399 c -1.03166,-0.65516 -7.24776,-4.56619 -13.81356,-8.69119 -6.56581,-4.125 -18.62116,-12.52511 -26.78968,-18.66691 -14.64511,-11.01145 -14.96788,-11.18941 -23.18643,-12.78386 -4.58402,-0.88932 -9.12208,-1.78459 -10.08458,-1.98947 -0.9625,-0.20489 -1.75,-0.2367 -1.75,-0.0707 0,0.67404 22.16679,16.71971 31.5,22.80161 14.09506,9.18491 30.04408,17.40979 37.04013,19.10152 7.5649,1.82928 9.63118,1.91649 7.08412,0.29898 z m 454.37575,-1.41238 c 5.61584,-1.81414 18.5672,-8.71731 31,-16.52323 10.02029,-6.29122 32.90083,-22.84266 32.96327,-23.84514 0.0202,-0.32425 -4.30303,0.24558 -9.60719,1.26631 -9.61898,1.85106 -9.67393,1.87861 -21.25,10.65497 -16.38436,12.42175 -23.05936,17.04328 -35.55717,24.6185 -10.48964,6.35802 -10.76354,6.60916 -6.5,5.96 2.4481,-0.37275 6.47609,-1.33188 8.95109,-2.13141 z m -483.13035,-5.69665 c -12.27024,-6.91259 -29.24955,-18.13259 -43.74103,-28.90423 -10.83208,-8.05158 -11.77333,-8.53228 -19.84631,-10.13555 -4.66121,-0.92571 -8.66457,-1.49346 -8.89636,-1.26167 -0.65397,0.65397 23.57884,19.45689 34.50835,26.776 15.31789,10.25785 24.61624,14.69577 35.27812,16.83754 5.13017,1.03056 9.99956,1.92594 10.82088,1.98974 0.82131,0.0638 -2.83433,-2.32202 -8.12365,-5.30183 z m 503.24111,3.30215 c 13.85851,-2.82217 25.18485,-8.73872 46.38924,-24.23238 9.34348,-6.82711 24.90532,-19.65198 23.84568,-19.65176 -1.96459,4e-4 -16.6354,3.06085 -17.63541,3.67889 -0.6006,0.37119 -7.28393,5.20775 -14.85184,10.74791 -12.78351,9.3583 -30.82148,21.04623 -43.85843,28.41865 -3.025,1.71064 -5.22516,3.12018 -4.88924,3.13231 0.33591,0.0121 5.28591,-0.92999 11,-2.09362 z m -518.11076,-0.29745 c 0,-0.22722 -3.34905,-2.21959 -7.44233,-4.42748 -10.01568,-5.40239 -22.36665,-13.61253 -33.6961,-22.39905 -9.25182,-7.17522 -9.47294,-7.27954 -18.86157,-8.89881 -5.225,-0.90116 -9.63129,-1.51987 -9.79176,-1.3749 -0.41593,0.37573 21.62325,14.39101 32.22325,20.4916 11.78422,6.78213 24.49614,12.89246 31.4477,15.11619 6.68701,2.13909 6.12081,2.00104 6.12081,1.49245 z m 542.45828,-3.51836 c 5.94113,-2.36454 24.48666,-12.07776 33.52918,-17.5609 11.12417,-6.7454 24.30486,-15.56801 23.84386,-15.96009 -0.18223,-0.15499 -4.32422,0.39009 -9.20443,1.21128 l -8.8731,1.49308 -12.74084,9.62406 c -7.00746,5.29324 -17.86456,12.65462 -24.12689,16.35863 -6.26233,3.70401 -12.06106,7.17063 -12.88606,7.7036 -1.61489,1.04325 5.60296,-0.93726 10.45828,-2.86966 z m -563.01715,-1.5367 c -1.06762,-0.80751 -2.29843,-1.48251 -2.73513,-1.5 -1.50948,-0.0605 -24.25631,-13.32932 -38.02061,-22.17849 l -13.81461,-8.88151 -10.52441,-1.56354 c -5.788428,-0.85995 -10.705165,-1.3828 -10.926082,-1.16188 -0.61741,0.61741 24.517972,14.85119 39.079712,22.13025 18.09562,9.04555 29.9621,13.58489 37.94113,14.5138 0.51762,0.0603 0.0676,-0.55112 -1,-1.35863 z m 585.55887,-2.8587 c 15.33808,-5.4852 66.59021,-32.59006 61.73923,-32.65099 -0.96842,-0.0122 -6.14342,0.6736 -11.5,1.52392 -9.03515,1.43426 -10.35372,1.95376 -18.23923,7.18599 -13.49518,8.95439 -23.65424,15.05709 -35.75,21.47557 -6.1875,3.28333 -11.25,6.14355 -11.25,6.35604 0,0.80466 6.81024,-0.96171 15,-3.89053 z m -610.08333,-1.04336 c -0.22917,-0.20364 -8.29167,-4.41864 -17.91667,-9.36668 -9.625,-4.94803 -23.76869,-12.69124 -31.430428,-17.20713 -12.701278,-7.48624 -14.686568,-8.3347 -22.5,-9.61587 -4.713262,-0.77283 -9.469568,-1.40562 -10.569568,-1.40619 -4.585897,-0.002 41.186686,24.67653 58.308706,31.43796 8.65452,3.41764 26.01423,7.85184 24.10796,6.15791 z m 645.3283,-6.19914 c 17.12487,-6.79859 62.75405,-31.4074 58.25503,-31.41819 -1.1,-0.003 -5.91466,0.63066 -10.69925,1.40733 -8.07481,1.31077 -9.7978,2.05769 -24.00333,10.40548 -8.41724,4.94633 -22.50257,12.69157 -31.30074,17.21163 -8.79818,4.52007 -16.1214,8.32311 -16.27384,8.45121 -0.15244,0.12811 3.1078,-0.35571 7.24497,-1.07514 4.13718,-0.71944 11.6869,-2.96148 16.77716,-4.98232 z m -668.79497,3.66214 c -0.5225,-0.49899 -3.875,-2.11181 -7.45,-3.58406 -8.32697,-3.42918 -32.467663,-16.039 -45.999996,-24.02796 -5.775,-3.40933 -11.603118,-6.77655 -12.951373,-7.48271 -2.604933,-1.36435 -19.144134,-5.23584 -19.755594,-4.62438 -0.888857,0.88886 31.11033,19.83896 46.507818,27.5422 14.53045,7.26947 19.391275,9.05605 30.199145,11.09957 5.225,0.98793 9.7025,1.83861 9.95,1.89041 0.2475,0.0518 0.0225,-0.31408 -0.5,-0.81307 z m 677.55,-1.14022 c 11.67059,-1.86115 26.44055,-8.26514 49,-21.24555 14.93071,-8.59094 28.95326,-17.95112 26,-17.35524 -1.375,0.27743 -5.425,1.05374 -9,1.725141 -4.88358,0.91716 -9.35983,2.895209 -18,7.954179 -16.26476,9.52332 -35.89316,19.89675 -48.05979,25.39917 -10.32035,4.66743 -13.29766,6.32898 -9.44021,5.26829 1.1,-0.30247 5.375,-1.08816 9.5,-1.74599 z"
     id="path4487"
     inkscape:connector-curvature="0" />
</svg>
