<?xml version="1.0" encoding="UTF-8" standalone="no"?>
<!-- Generator: Adobe Illustrator 18.0.0, SVG Export Plug-In . SVG Version: 6.00 Build 0)  -->

<svg
   xmlns:dc="http://purl.org/dc/elements/1.1/"
   xmlns:cc="http://creativecommons.org/ns#"
   xmlns:rdf="http://www.w3.org/1999/02/22-rdf-syntax-ns#"
   xmlns:svg="http://www.w3.org/2000/svg"
   xmlns="http://www.w3.org/2000/svg"
   xmlns:sodipodi="http://sodipodi.sourceforge.net/DTD/sodipodi-0.dtd"
   xmlns:inkscape="http://www.inkscape.org/namespaces/inkscape"
   version="1.1"
   id="svg2"
   sodipodi:docname="halstuch_halbiert_einfacher_rand.svg"
   inkscape:version="0.92.1 r"
   x="0px"
   y="0px"
   viewBox="0 0 903 273"
   enable-background="new 0 0 903 273"
   xml:space="preserve"><metadata
     id="metadata50"><rdf:RDF><cc:Work
         rdf:about=""><dc:format>image/svg+xml</dc:format><dc:type
           rdf:resource="http://purl.org/dc/dcmitype/StillImage" /></cc:Work></rdf:RDF></metadata><defs
     id="defs48" /><path
     d="m 124,19.3 106.8,17.9 -6,-6.5 c 0,0 98.71001,17.857779 228.91001,18.157779 C 579.91001,49.057779 682.6,30.9 682.6,30.9 l -2.2,5.4 105.2,-17.4 c 0,0 -7.5,7.7 -5.2,7.5 50.3,-3.7 109.4,-18.5 109.4,-18.5 0,0 -54.3,51.3 -134.9,54.7 -38.9,1.6 -122,20.3 -122,20.3 L 455,259.5 276.8,82.9 C 276.8,82.9 176,63.6 160.3,63.4 76,62.3 19.7,8.2 19.7,8.2 c 0,0 42.2,11.7 112.2,18.6 2.6,0.3 -7.9,-7.5 -7.9,-7.5 z"
     id="path2"
     inkscape:connector-curvature="0"
     sodipodi:nodetypes="ccccccccccccccccc" /><sodipodi:namedview
     inkscape:pageopacity="0"
     inkscape:pageshadow="2"
     inkscape:window-width="1920"
     inkscape:window-height="1023"
     inkscape:window-x="1920"
     inkscape:window-y="0"
     inkscape:window-maximized="1"
     inkscape:current-layer="svg2"
     gridtolerance="10"
     showgrid="false"
     inkscape:zoom="2.0642303"
     borderopacity="1"
     bordercolor="#666666"
     objecttolerance="10"
     pagecolor="#ffffff"
     guidetolerance="10"
     inkscape:cx="572.99285"
     id="namedview4"
     inkscape:cy="124.38831"
     showguides="true"
     inkscape:guide-bbox="true"><sodipodi:guide
       position="454.56686,246.29508"
       orientation="1,0"
       id="guide72"
       inkscape:locked="false" /><sodipodi:guide
       position="453.98278,44.265894"
       orientation="1,0"
       id="guide26"
       inkscape:locked="false" /><sodipodi:guide
       position="455.73888,45.355889"
       orientation="1,0"
       id="guide28"
       inkscape:locked="false" /><sodipodi:guide
       position="454.58828,222.64827"
       orientation="0,1"
       id="guide30"
       inkscape:locked="false" /></sodipodi:namedview><path
     fill="#FFFFFF"
     d="M121.3,55.8c0,0-19.9-1.9-46.4-16.3C64.5,34,34.6,15.3,34.6,15.3S52,18,64.7,25.8  C80.5,35.6,121.3,55.8,121.3,55.8z"
     id="path5" /><path
     d="m 182.3967,63.472237 c 0,0 -1.60801,0.697152 -12.90852,-1.166977 -14.5476,-2.399768 -18.39909,1.021214 -42.24973,-6.618874 C 115.66479,51.324572 61,19.7 61,19.7 c 0,0 65.34951,9.252226 75.31393,11.499477 3.99973,3.059652 15.63504,11.922692 27.55681,20.24189 12.41108,8.660649 18.52596,12.03087 18.52596,12.03087 z"
     id="path11"
     inkscape:connector-curvature="0"
     style="fill:#ffffff"
     sodipodi:nodetypes="cscccsc" /><path
     fill="#FFFFFF"
     d="M212.3,68.8c0,0-16.3,1.1-46.1-18.8c-9.8-6.5-34.3-26.7-34.3-26.7s14.2-0.1,23,7.3  C170.4,43.5,212.3,68.8,212.3,68.8z"
     id="path13" /><path
     d="m 271.61451,78.578186 c 0,0 -47.4793,-6.447328 -64.50486,-16.342036 C 197.30965,55.73615 157.8,28.5 157.8,28.5 l 77.03112,13.763332 c 15.3,14.5 36.78339,36.314854 36.78339,36.314854 z"
     id="path19"
     inkscape:connector-curvature="0"
     style="fill:#ffffff"
     sodipodi:nodetypes="ccccc" /><path
     fill="#FFFFFF"
     d="M788.2,55.8c0,0,19.9-1.9,46.4-16.3c10.3-5.6,40.2-24.3,40.2-24.3s-17.4,2.7-30,10.5  C829,35.6,788.2,55.8,788.2,55.8z"
     id="path21" /><path
     d="m 726.53722,63.074477 c 0,0 27.69462,-4.352646 54.38026,-6.235126 C 793.39747,51.602683 848.4,19.7 848.4,19.7 l -43.67213,6.6103 -31.38745,3.720558 c -13.5165,14.598933 -46.8032,33.043619 -46.8032,33.043619 z"
     id="path27"
     inkscape:connector-curvature="0"
     style="fill:#ffffff"
     sodipodi:nodetypes="cccccc" /><path
     fill="#FFFFFF"
     d="M697.2,68.8c0,0,16.3,1.1,46.1-18.8c9.8-6.5,34.3-26.7,34.3-26.7s-14.2-0.1-23,7.3  C739.1,43.5,697.2,68.8,697.2,68.8z"
     id="path29" /><path
     d="m 639.18884,78.010627 c 0,0 20.91272,-5.023388 53.2675,-9.951088 C 702.25634,61.559539 751.7,28.5 751.7,28.5 l -78,13.4 c -15.3,14.5 -34.51116,36.110627 -34.51116,36.110627 z"
     id="path35"
     inkscape:connector-curvature="0"
     style="fill:#ffffff"
     sodipodi:nodetypes="ccccc" /><polygon
     fill="#FFFFFF"
     points="677.3,34.9 454.8,256.9 232.3,34.8 252.3,37.4 454.8,237.9 657.3,37.4 "
     id="polygon41" /><path
     d="M 255.83834,37.657779 C 321.69245,45.43624 385.89455,50.35173 453.98278,50.35173 l -0.0119,184.60966 C 396.97126,176.46503 255.83834,37.657779 255.83834,37.657779 Z"
     id="path37-3"
     inkscape:connector-curvature="0"
     style="fill:#00ff00"
     sodipodi:nodetypes="cccc" /><path
     d="m 654.19569,38.130069 c 0,0 -51.08886,5.64527 -81.59694,7.930765 -68.46222,5.128806 -116.85987,4.290896 -116.85987,4.290896 l -2.7e-4,184.60966 c 3.3e-4,0 198.45708,-196.831321 198.45708,-196.831321 z"
     id="path39"
     inkscape:connector-curvature="0"
     style="fill:#00ff00"
     sodipodi:nodetypes="csccc" /></svg>