<?xml version="1.0" encoding="UTF-8" standalone="no"?>
<!-- Generator: Adobe Illustrator 18.0.0, SVG Export Plug-In . SVG Version: 6.00 Build 0)  -->

<svg
   xmlns:dc="http://purl.org/dc/elements/1.1/"
   xmlns:cc="http://creativecommons.org/ns#"
   xmlns:rdf="http://www.w3.org/1999/02/22-rdf-syntax-ns#"
   xmlns:svg="http://www.w3.org/2000/svg"
   xmlns="http://www.w3.org/2000/svg"
   xmlns:sodipodi="http://sodipodi.sourceforge.net/DTD/sodipodi-0.dtd"
   xmlns:inkscape="http://www.inkscape.org/namespaces/inkscape"
   version="1.1"
   id="svg2"
   sodipodi:docname="halstuch_einfarbig_doppelborte.svg"
   inkscape:version="0.92.1 r"
   x="0px"
   y="0px"
   viewBox="0 0 903 273"
   enable-background="new 0 0 903 273"
   xml:space="preserve"><metadata
     id="metadata50"><rdf:RDF><cc:Work
         rdf:about=""><dc:format>image/svg+xml</dc:format><dc:type
           rdf:resource="http://purl.org/dc/dcmitype/StillImage" /></cc:Work></rdf:RDF></metadata><defs
     id="defs48" /><path
     d="M124,19.3l106.8,17.9l-6-6.5c0,0,99.8,18.1,230,18.4C581,49.3,682.6,30.9,682.6,30.9l-2.2,5.4l105.2-17.4  c0,0-7.5,7.7-5.2,7.5c50.3-3.7,109.4-18.5,109.4-18.5s-54.3,51.3-134.9,54.7c-38.9,1.6-122,20.3-122,20.3L455,259.5L276.8,82.9  c0,0-100.8-19.3-116.5-19.5C76,62.3,19.7,8.2,19.7,8.2s42.2,11.7,112.2,18.6C134.5,27.1,124,19.3,124,19.3z"
     id="path2" /><sodipodi:namedview
     inkscape:pageopacity="0"
     inkscape:pageshadow="2"
     inkscape:window-width="1920"
     inkscape:window-height="1023"
     inkscape:window-x="1920"
     inkscape:window-y="0"
     inkscape:window-maximized="1"
     inkscape:current-layer="svg2"
     gridtolerance="10"
     showgrid="false"
     inkscape:zoom="4"
     borderopacity="1"
     bordercolor="#666666"
     objecttolerance="10"
     pagecolor="#ffffff"
     guidetolerance="10"
     inkscape:cx="423.67839"
     id="namedview4"
     inkscape:cy="169.46644"
     showguides="true"
     inkscape:guide-bbox="true"><sodipodi:guide
       position="455.40184,83.047516"
       orientation="1,0"
       id="guide3723"
       inkscape:locked="false" /><sodipodi:guide
       position="453.87891,79.402344"
       orientation="0,1"
       id="guide3725"
       inkscape:locked="false" /><sodipodi:guide
       position="455.03906,80.246094"
       orientation="1,0"
       id="guide3727"
       inkscape:locked="false" /><sodipodi:guide
       position="455.74219,79.996094"
       orientation="1,0"
       id="guide3729"
       inkscape:locked="false" /><sodipodi:guide
       position="455.29688,220.74609"
       orientation="0,1"
       id="guide3731"
       inkscape:locked="false" /></sodipodi:namedview><path
     fill="#FFFFFF"
     d="M121.3,55.8c0,0-19.9-1.9-46.4-16.3C64.5,34,34.6,15.3,34.6,15.3S52,18,64.7,25.8  C80.5,35.6,121.3,55.8,121.3,55.8z"
     id="path5" /><path
     fill="#FFFFFF"
     d="M144.2,57.5c0,0-18.9-1.8-45.5-16.1c-10.3-5.6-37.7-21.7-37.7-21.7s15.6,0.2,28.3,8  C105.2,37.5,144.2,57.5,144.2,57.5z"
     id="path7" /><path
     fill="#FFFFFF"
     d="M169.8,62.8c0,0-12.5-0.7-39-15c-10.3-5.6-37.7-21.7-37.7-21.7l21.1,2.8C130.2,39.8,169.8,62.8,169.8,62.8z"
     id="path9" /><path
     fill="#FFFFFF"
     d="M189.3,66.5c0,0-5.6,0.7-32.2-13.6c-10.3-5.6-37.9-23.6-37.9-23.6s19.2,0.5,26.5,8.5  C151.9,44.5,189.3,66.5,189.3,66.5z"
     id="path11" /><path
     fill="#FFFFFF"
     d="M212.3,68.8c0,0-16.3,1.1-46.1-18.8c-9.8-6.5-34.3-26.7-34.3-26.7s14.2-0.1,23,7.3  C170.4,43.5,212.3,68.8,212.3,68.8z"
     id="path13" /><path
     fill="#FFFFFF"
     d="M234,71.3c0,0-8.4,3.1-42.1-18.1c-9.9-6.3-34.1-24.7-34.1-24.7s18,2.3,24.4,7.3  C198.1,48.2,234,71.3,234,71.3z"
     id="path15" /><path
     fill="#FFFFFF"
     d="M265.2,77.6c-0.2,1-18.5-0.1-48.3-20c-9.8-6.5-32.1-24.1-32.1-24.1s16.6,0.5,25.4,7.8  C225.6,54.2,265.5,76,265.2,77.6z"
     id="path17" /><path
     fill="#FFFFFF"
     d="M266.8,73.9c0,0-3.1,0.8-32.8-19.2c-9.8-6.5-23.2-17.3-23.2-17.3l25,4.5C251.1,56.4,266.8,73.9,266.8,73.9z"
     id="path19" /><path
     fill="#FFFFFF"
     d="M788.2,55.8c0,0,19.9-1.9,46.4-16.3c10.3-5.6,40.2-24.3,40.2-24.3s-17.4,2.7-30,10.5  C829,35.6,788.2,55.8,788.2,55.8z"
     id="path21" /><path
     fill="#FFFFFF"
     d="M765.2,57.5c0,0,18.9-1.8,45.5-16.1c10.3-5.6,37.7-21.7,37.7-21.7s-15.6,0.2-28.3,8  C804.3,37.5,765.2,57.5,765.2,57.5z"
     id="path23" /><path
     fill="#FFFFFF"
     d="M739.7,62.8c0,0,12.5-0.7,39-15c10.3-5.6,37.7-21.7,37.7-21.7l-21.1,2.8C779.3,39.8,739.7,62.8,739.7,62.8z"
     id="path25" /><path
     fill="#FFFFFF"
     d="M720.2,66.5c0,0,5.6,0.7,32.2-13.6c10.3-5.6,37.9-23.6,37.9-23.6l-19.7,3.3C754.6,46,720.2,66.5,720.2,66.5z  "
     id="path27" /><path
     fill="#FFFFFF"
     d="M697.2,68.8c0,0,16.3,1.1,46.1-18.8c9.8-6.5,34.3-26.7,34.3-26.7s-14.2-0.1-23,7.3  C739.1,43.5,697.2,68.8,697.2,68.8z"
     id="path29" /><path
     fill="#FFFFFF"
     d="M675.5,71.3c0,0,8.4,3.1,42.1-18.1c9.9-6.3,34.1-24.7,34.1-24.7s-18,2.3-24.4,7.3  C711.4,48.2,675.5,71.3,675.5,71.3z"
     id="path31" /><path
     fill="#FFFFFF"
     d="M644.3,77.6c0.2,1,18.5-0.1,48.3-20c9.8-6.5,32.1-24.1,32.1-24.1s-16.6,0.5-25.4,7.8  C683.9,54.2,644,76,644.3,77.6z"
     id="path33" /><path
     fill="#FFFFFF"
     d="M642.7,73.9c0,0,3.1,0.8,32.8-19.2c9.8-6.5,23.2-17.3,23.2-17.3l-25,4.5C658.4,56.4,642.7,73.9,642.7,73.9z"
     id="path35" /><path
     d="m 303.17294,44.191209 c 3.50048,0.690717 41.35717,3.076168 78.39353,4.916467 37.14895,1.845894 73.47259,3.145599 73.47259,3.145599 l 0.002,141.340395 C 455.81942,194.29413 396.44057,135.35182 352.43647,92.300526 323.62927,64.117078 303.17294,44.191209 303.17294,44.191209 Z"
     id="path37"
     inkscape:connector-curvature="0"
     style="fill:#ffffff"
     sodipodi:nodetypes="csccsc" /><path
     d="m 607.7902,43.506995 c -3.32543,1.12409 -36.71397,3.997903 -71.46271,5.796011 -39.44192,2.040961 -80.5853,2.950904 -80.5853,2.950904 l 0.001,141.34375 c 3.3e-4,0 152.04701,-150.090665 152.04701,-150.090665 z"
     id="path39"
     inkscape:connector-curvature="0"
     style="fill:#ffffff"
     sodipodi:nodetypes="csccc" /><polygon
     fill="#FFFFFF"
     points="677.3,34.9 454.8,256.9 232.3,34.8 252.3,37.4 454.8,237.9 657.3,37.4 "
     id="polygon41" /><polygon
     fill="#FFFFFF"
     points="652,38.2 454.8,235.9 258.2,37.9 276.8,40.1 454.8,215.9 632.1,40.6 "
     id="polygon43" /><polygon
     fill="#FFFFFF"
     points="627.3,42.2 454.7,213.8 282.8,41.8 300.8,44 455.4,196.4 610.3,43.5 "
     id="polygon45" /></svg>