<?xml version="1.0" encoding="UTF-8" standalone="no"?>
<!-- Generator: Adobe Illustrator 18.0.0, SVG Export Plug-In . SVG Version: 6.00 Build 0)  -->

<svg
   xmlns:dc="http://purl.org/dc/elements/1.1/"
   xmlns:cc="http://creativecommons.org/ns#"
   xmlns:rdf="http://www.w3.org/1999/02/22-rdf-syntax-ns#"
   xmlns:svg="http://www.w3.org/2000/svg"
   xmlns="http://www.w3.org/2000/svg"
   xmlns:sodipodi="http://sodipodi.sourceforge.net/DTD/sodipodi-0.dtd"
   xmlns:inkscape="http://www.inkscape.org/namespaces/inkscape"
   version="1.1"
   id="svg2"
   sodipodi:docname="halstuch_einfach_borte.svg"
   inkscape:version="0.92.1 r"
   x="0px"
   y="0px"
   viewBox="0 0 903 273"
   enable-background="new 0 0 903 273"
   xml:space="preserve"><metadata
     id="metadata50"><rdf:RDF><cc:Work
         rdf:about=""><dc:format>image/svg+xml</dc:format><dc:type
           rdf:resource="http://purl.org/dc/dcmitype/StillImage" /></cc:Work></rdf:RDF></metadata><defs
     id="defs48" /><path
     d="M124,19.3l106.8,17.9l-6-6.5c0,0,99.8,18.1,230,18.4C581,49.3,682.6,30.9,682.6,30.9l-2.2,5.4l105.2-17.4  c0,0-7.5,7.7-5.2,7.5c50.3-3.7,109.4-18.5,109.4-18.5s-54.3,51.3-134.9,54.7c-38.9,1.6-122,20.3-122,20.3L455,259.5L276.8,82.9  c0,0-100.8-19.3-116.5-19.5C76,62.3,19.7,8.2,19.7,8.2s42.2,11.7,112.2,18.6C134.5,27.1,124,19.3,124,19.3z"
     id="path2" /><sodipodi:namedview
     inkscape:pageopacity="0"
     inkscape:pageshadow="2"
     inkscape:window-width="1920"
     inkscape:window-height="1023"
     inkscape:window-x="1920"
     inkscape:window-y="0"
     inkscape:window-maximized="1"
     inkscape:current-layer="svg2"
     gridtolerance="10"
     showgrid="false"
     inkscape:zoom="2.0642303"
     borderopacity="1"
     bordercolor="#666666"
     objecttolerance="10"
     pagecolor="#ffffff"
     guidetolerance="10"
     inkscape:cx="396.34599"
     id="namedview4"
     inkscape:cy="235.38944"
     showguides="true"
     inkscape:guide-bbox="true"><sodipodi:guide
       position="454.64888,79.206278"
       orientation="1,0"
       id="guide52"
       inkscape:locked="false" /></sodipodi:namedview><path
     fill="#FFFFFF"
     d="M121.3,55.8c0,0-19.9-1.9-46.4-16.3C64.5,34,34.6,15.3,34.6,15.3S52,18,64.7,25.8  C80.5,35.6,121.3,55.8,121.3,55.8z"
     id="path5" /><path
     fill="#FFFFFF"
     d="M144.2,57.5c0,0-18.9-1.8-45.5-16.1c-10.3-5.6-37.7-21.7-37.7-21.7s15.6,0.2,28.3,8  C105.2,37.5,144.2,57.5,144.2,57.5z"
     id="path7" /><path
     d="m 189.59973,65.900534 c 0,0 -8.4912,-1.495361 -18.62594,-3.598765 C 164.7867,61.017674 156.90304,61.026876 152.68704,59.725517 141.32733,54.640237 93.1,26.1 93.1,26.1 c 0,0 45.3,3.7 52.6,11.7 6.2,6.7 43.89973,28.100534 43.89973,28.100534 z"
     id="path11"
     inkscape:connector-curvature="0"
     style="fill:#ffffff"
     sodipodi:nodetypes="cscccc" /><path
     fill="#FFFFFF"
     d="M212.3,68.8c0,0-16.3,1.1-46.1-18.8c-9.8-6.5-34.3-26.7-34.3-26.7s14.2-0.1,23,7.3  C170.4,43.5,212.3,68.8,212.3,68.8z"
     id="path13" /><path
     fill="#FFFFFF"
     d="M234,71.3c0,0-8.4,3.1-42.1-18.1c-9.9-6.3-34.1-24.7-34.1-24.7s18,2.3,24.4,7.3  C198.1,48.2,234,71.3,234,71.3z"
     id="path15" /><path
     d="m 272.96594,79.380836 c 0,0 -27.33557,-2.71116 -41.70636,-13.290973 C 221.45958,59.589863 184.8,33.5 184.8,33.5 l 51,8.4 c 15.3,14.5 37.16594,37.480836 37.16594,37.480836 z"
     id="path19"
     inkscape:connector-curvature="0"
     style="fill:#ffffff"
     sodipodi:nodetypes="ccccc" /><path
     fill="#FFFFFF"
     d="M788.2,55.8c0,0,19.9-1.9,46.4-16.3c10.3-5.6,40.2-24.3,40.2-24.3s-17.4,2.7-30,10.5  C829,35.6,788.2,55.8,788.2,55.8z"
     id="path21" /><path
     fill="#FFFFFF"
     d="M765.2,57.5c0,0,18.9-1.8,45.5-16.1c10.3-5.6,37.7-21.7,37.7-21.7s-15.6,0.2-28.3,8  C804.3,37.5,765.2,57.5,765.2,57.5z"
     id="path23" /><path
     d="m 725.16553,63.351127 c 0,0 30.06433,-3.296648 40.07218,-10.087795 C 775.53771,47.663332 816.4,26.1 816.4,26.1 l -45.8,6.5 c -16,13.4 -45.43447,30.751127 -45.43447,30.751127 z"
     id="path27"
     inkscape:connector-curvature="0"
     style="fill:#ffffff"
     sodipodi:nodetypes="ccccc" /><path
     fill="#FFFFFF"
     d="M697.2,68.8c0,0,16.3,1.1,46.1-18.8c9.8-6.5,34.3-26.7,34.3-26.7s-14.2-0.1-23,7.3  C739.1,43.5,697.2,68.8,697.2,68.8z"
     id="path29" /><path
     fill="#FFFFFF"
     d="M675.5,71.3c0,0,8.4,3.1,42.1-18.1c9.9-6.3,34.1-24.7,34.1-24.7s-18,2.3-24.4,7.3  C711.4,48.2,675.5,71.3,675.5,71.3z"
     id="path31" /><path
     d="m 637.49225,79.228863 c 0,0 30.22875,-4.044421 42.60995,-14.961132 C 689.9022,57.767731 724.7,33.5 724.7,33.5 l -51,8.4 c -15.3,14.5 -36.20775,37.328863 -36.20775,37.328863 z"
     id="path35"
     inkscape:connector-curvature="0"
     style="fill:#ffffff"
     sodipodi:nodetypes="ccccc" /><path
     d="m 281.71001,40.952226 c 3.01296,1.787772 88.95741,11.348968 172.93973,11.160864 86.50863,-0.193763 173.50664,-10.683833 173.50664,-10.683833 L 454.7,213.8 c 0.1,0 -181.08334,-178.969984 -172.98999,-172.847774 z"
     id="path37"
     inkscape:connector-curvature="0"
     style="fill:#ffffff"
     sodipodi:nodetypes="csccc" /><polygon
     fill="#FFFFFF"
     points="677.3,34.9 454.8,256.9 232.3,34.8 252.3,37.4 454.8,237.9 657.3,37.4 "
     id="polygon41" /><polygon
     fill="#FFFFFF"
     points="652,38.2 454.8,235.9 258.2,37.9 276.8,40.1 454.8,215.9 632.1,40.6 "
     id="polygon43" /></svg>