<?xml version="1.0" encoding="UTF-8" standalone="no"?>
<!-- Generator: Adobe Illustrator 18.0.0, SVG Export Plug-In . SVG Version: 6.00 Build 0)  -->

<svg
   xmlns:dc="http://purl.org/dc/elements/1.1/"
   xmlns:cc="http://creativecommons.org/ns#"
   xmlns:rdf="http://www.w3.org/1999/02/22-rdf-syntax-ns#"
   xmlns:svg="http://www.w3.org/2000/svg"
   xmlns="http://www.w3.org/2000/svg"
   xmlns:sodipodi="http://sodipodi.sourceforge.net/DTD/sodipodi-0.dtd"
   xmlns:inkscape="http://www.inkscape.org/namespaces/inkscape"
   version="1.1"
   id="svg2"
   sodipodi:docname="halstuch_einfarbig_gekreuzte_doppelborte.svg"
   inkscape:version="0.92.2 5c3e80d, 2017-08-06"
   x="0px"
   y="0px"
   viewBox="0 0 903 273"
   enable-background="new 0 0 903 273"
   xml:space="preserve"><metadata
     id="metadata50"><rdf:RDF><cc:Work
         rdf:about=""><dc:format>image/svg+xml</dc:format><dc:type
           rdf:resource="http://purl.org/dc/dcmitype/StillImage" /></cc:Work></rdf:RDF></metadata><defs
     id="defs48" /><path
     d="M124,19.3l106.8,17.9l-6-6.5c0,0,99.8,18.1,230,18.4C581,49.3,682.6,30.9,682.6,30.9l-2.2,5.4l105.2-17.4  c0,0-7.5,7.7-5.2,7.5c50.3-3.7,109.4-18.5,109.4-18.5s-54.3,51.3-134.9,54.7c-38.9,1.6-122,20.3-122,20.3L455,259.5L276.8,82.9  c0,0-100.8-19.3-116.5-19.5C76,62.3,19.7,8.2,19.7,8.2s42.2,11.7,112.2,18.6C134.5,27.1,124,19.3,124,19.3z"
     id="path2" /><sodipodi:namedview
     inkscape:pageopacity="0"
     inkscape:pageshadow="2"
     inkscape:window-width="1920"
     inkscape:window-height="1037"
     inkscape:window-x="1920"
     inkscape:window-y="41"
     inkscape:window-maximized="0"
     inkscape:current-layer="layer7"
     gridtolerance="10"
     showgrid="false"
     inkscape:zoom="1.9999999"
     borderopacity="1"
     bordercolor="#666666"
     objecttolerance="10"
     pagecolor="#ffffff"
     guidetolerance="10"
     inkscape:cx="488.65882"
     id="namedview4"
     inkscape:cy="160.52982"
     showguides="true"
     inkscape:guide-bbox="true"><sodipodi:guide
       position="455.40184,83.047516"
       orientation="1,0"
       id="guide3723"
       inkscape:locked="false" /><sodipodi:guide
       position="453.87891,79.402344"
       orientation="0,1"
       id="guide3725"
       inkscape:locked="false" /><sodipodi:guide
       position="455.03906,80.246094"
       orientation="1,0"
       id="guide3727"
       inkscape:locked="false" /><sodipodi:guide
       position="455.74219,79.996094"
       orientation="1,0"
       id="guide3729"
       inkscape:locked="false" /><sodipodi:guide
       position="455.29688,220.74609"
       orientation="0,1"
       id="guide3731"
       inkscape:locked="false" /><sodipodi:guide
       position="455.37679,224.85997"
       orientation="1,0"
       id="guide33"
       inkscape:locked="false" /></sodipodi:namedview><path
     fill="#FFFFFF"
     d="M121.3,55.8c0,0-19.9-1.9-46.4-16.3C64.5,34,34.6,15.3,34.6,15.3S52,18,64.7,25.8  C80.5,35.6,121.3,55.8,121.3,55.8z"
     id="path5" /><path
     fill="#FFFFFF"
     d="M144.2,57.5c0,0-18.9-1.8-45.5-16.1c-10.3-5.6-37.7-21.7-37.7-21.7s15.6,0.2,28.3,8  C105.2,37.5,144.2,57.5,144.2,57.5z"
     id="path7" /><path
     fill="#FFFFFF"
     d="M169.8,62.8c0,0-12.5-0.7-39-15c-10.3-5.6-37.7-21.7-37.7-21.7l21.1,2.8C130.2,39.8,169.8,62.8,169.8,62.8z"
     id="path9" /><path
     d="M189.3,66.5c0,0-5.6,0.7-32.2-13.6c-10.3-5.6-37.9-23.6-37.9-23.6s19.2,0.5,26.5,8.5  C151.9,44.5,189.3,66.5,189.3,66.5z"
     id="path11"
     fill="#FFFFFF" /><path
     fill="#FFFFFF"
     d="M212.3,68.8c0,0-16.3,1.1-46.1-18.8c-9.8-6.5-34.3-26.7-34.3-26.7s14.2-0.1,23,7.3  C170.4,43.5,212.3,68.8,212.3,68.8z"
     id="path13" /><path
     fill="#FFFFFF"
     d="M234,71.3c0,0-8.4,3.1-42.1-18.1c-9.9-6.3-34.1-24.7-34.1-24.7s18,2.3,24.4,7.3  C198.1,48.2,234,71.3,234,71.3z"
     id="path15" /><path
     fill="#FFFFFF"
     d="M265.2,77.6c-0.2,1-18.5-0.1-48.3-20c-9.8-6.5-32.1-24.1-32.1-24.1s16.6,0.5,25.4,7.8  C225.6,54.2,265.5,76,265.2,77.6z"
     id="path17" /><path
     fill="#FFFFFF"
     d="M266.8,73.9c0,0-3.1,0.8-32.8-19.2c-9.8-6.5-23.2-17.3-23.2-17.3l25,4.5C251.1,56.4,266.8,73.9,266.8,73.9z"
     id="path19" /><path
     fill="#FFFFFF"
     d="M788.2,55.8c0,0,19.9-1.9,46.4-16.3c10.3-5.6,40.2-24.3,40.2-24.3s-17.4,2.7-30,10.5  C829,35.6,788.2,55.8,788.2,55.8z"
     id="path21" /><path
     fill="#FFFFFF"
     d="M765.2,57.5c0,0,18.9-1.8,45.5-16.1c10.3-5.6,37.7-21.7,37.7-21.7s-15.6,0.2-28.3,8  C804.3,37.5,765.2,57.5,765.2,57.5z"
     id="path23" /><path
     fill="#FFFFFF"
     d="M739.7,62.8c0,0,12.5-0.7,39-15c10.3-5.6,37.7-21.7,37.7-21.7l-21.1,2.8C779.3,39.8,739.7,62.8,739.7,62.8z"
     id="path25" /><path
     d="m 725.2,64.375318 c 0,0 5.20057,0.660019 29.90328,-12.823235 C 764.66862,46.271928 790.3,29.3 790.3,29.3 l -18.29486,3.11152 C 757.14636,45.046178 725.2,64.375318 725.2,64.375318 Z"
     id="path27"
     inkscape:connector-curvature="0"
     style="fill:#ffffff;stroke-width:0.93575215" /><path
     fill="#FFFFFF"
     d="M697.2,68.8c0,0,16.3,1.1,46.1-18.8c9.8-6.5,34.3-26.7,34.3-26.7s-14.2-0.1-23,7.3  C739.1,43.5,697.2,68.8,697.2,68.8z"
     id="path29" /><path
     fill="#FFFFFF"
     d="M675.5,71.3c0,0,8.4,3.1,42.1-18.1c9.9-6.3,34.1-24.7,34.1-24.7s-18,2.3-24.4,7.3  C711.4,48.2,675.5,71.3,675.5,71.3z"
     id="path31" /><path
     fill="#FFFFFF"
     d="M644.3,77.6c0.2,1,18.5-0.1,48.3-20c9.8-6.5,32.1-24.1,32.1-24.1s-16.6,0.5-25.4,7.8  C683.9,54.2,644,76,644.3,77.6z"
     id="path33" /><path
     fill="#FFFFFF"
     d="M642.7,73.9c0,0,3.1,0.8,32.8-19.2c9.8-6.5,23.2-17.3,23.2-17.3l-25,4.5C658.4,56.4,642.7,73.9,642.7,73.9z"
     id="path35" /><path
     d="m 607.2902,42.881995 c -3.32543,1.12409 -36.71397,3.997903 -71.46271,5.796011 -13.38845,0.692799 -45.25104,2.415108 -80.58918,2.368153 -10.74912,-0.01428 -45.96775,-0.897697 -79.16494,-2.635088 -37.83471,-1.980098 -72.52543,-4.219862 -72.52543,-4.219862 L 454.94769,192.62539 c 3.3e-4,0 152.34251,-149.743395 152.34251,-149.743395 z"
     id="path39"
     inkscape:connector-curvature="0"
     style="fill:#ffffff"
     sodipodi:nodetypes="csssccc" /><polygon
     points="455.4,196.4 610.3,43.5 627.3,42.2 454.7,213.8 282.8,41.8 300.8,44 "
     id="polygon45"
     style="fill:#ffffff" /><path
     d="m 478.10096,215.7592 9.78492,9.53783 c 0,0 180.33104,-179.705658 190.1514,-190.007068 l -20.4375,3.1875 C 653.10889,41.502242 478.10096,215.7592 478.10096,215.7592 Z"
     id="path35-3-5"
     inkscape:connector-curvature="0"
     style="fill:#ffffff"
     sodipodi:nodetypes="ccccc" /><path
     d="m 431.4319,215.57413 -9.60214,9.46967 c 0,0 -179.95262,-179.795073 -189.77298,-190.096483 l 20.26516,3.351301 c 4.49088,3.02477 179.10996,177.275512 179.10996,177.275512 z"
     id="path35-3-6-7"
     inkscape:connector-curvature="0"
     style="fill:#ffffff"
     sodipodi:nodetypes="ccccc" /><path
     d="m 445.32683,248.42223 9.52133,9.54652 9.63757,-9.6156 -9.63757,-9.3844 z"
     id="path35-3-5-3"
     inkscape:connector-curvature="0"
     style="fill:#ffffff"
     sodipodi:nodetypes="ccccc" /><g
     inkscape:groupmode="layer"
     id="layer6"
     inkscape:label="Layer 1"><path
       d="m 434.41125,237.2811 10.16362,10.10316 c 0,0 200.39079,-198.50396 210.21115,-208.805368 l -24.69477,2.842663 c -4.49089,3.024778 -195.68,195.859545 -195.68,195.859545 z"
       id="path35-3"
       inkscape:connector-curvature="0"
       style="fill:#ffffff"
       sodipodi:nodetypes="ccccc" /></g><g
     inkscape:groupmode="layer"
     id="layer7"
     inkscape:label="Layer 2"><path
       d="m 475.40065,237.52772 -10.16362,10.10316 c 0,0 -199.58051,-198.614176 -209.40087,-208.915586 l 23.63227,2.78109 c 4.49088,3.02477 195.93222,196.031336 195.93222,196.031336 z"
       id="path35-3-6"
       inkscape:connector-curvature="0"
       style="fill:#ffffff"
       sodipodi:nodetypes="ccccc" /></g><g
     inkscape:groupmode="layer"
     id="layer8"
     inkscape:label="Layer 3"><path
       d="m 422.90757,226.19325 10.54778,10.31054 c 0,0 184.58208,-184.730935 194.40244,-195.032343 l -17.75943,1.445454 C 605.60747,45.941679 422.90757,226.19325 422.90757,226.19325 Z"
       id="path35-3-7"
       inkscape:connector-curvature="0"
       style="fill:#ffffff"
       sodipodi:nodetypes="ccccc" /></g><g
     inkscape:groupmode="layer"
     id="layer9"
     inkscape:label="Layer 4"><path
       d="m 486.95968,226.20291 -10.37374,10.42147 c 0,0 -184.00977,-184.412485 -193.83013,-194.713895 l 18,2.2 c 4.49088,3.02477 186.20387,182.092425 186.20387,182.092425 z"
       id="path35-3-6-5"
       inkscape:connector-curvature="0"
       style="fill:#ffffff"
       sodipodi:nodetypes="ccccc" /><path
       style="fill:none;fill-rule:evenodd;stroke:#000000;stroke-width:0.99338084px;stroke-linecap:butt;stroke-linejoin:miter;stroke-opacity:1"
       d="m 444.08664,227.28319 10.98622,10.93075"
       id="path1497"
       inkscape:connector-type="polyline"
       inkscape:connector-curvature="0" /></g><g
     inkscape:groupmode="layer"
     id="layer10"
     inkscape:label="Layer 5"><path
       style="fill:none;fill-rule:evenodd;stroke:#000000;stroke-width:1.19728613;stroke-linecap:butt;stroke-linejoin:miter;stroke-miterlimit:4;stroke-dasharray:none;stroke-opacity:1"
       d="m 454.84742,215.83388 -11.22724,11.32665"
       id="path1481"
       inkscape:connector-type="polyline"
       inkscape:connector-curvature="0" /><path
       style="fill:none;fill-rule:evenodd;stroke:#000000;stroke-width:1.00086761px;stroke-linecap:butt;stroke-linejoin:miter;stroke-opacity:1"
       d="m 454.47491,193.52199 22.68226,22.33337"
       id="path1416"
       inkscape:connector-type="polyline"
       inkscape:connector-curvature="0"
       sodipodi:nodetypes="cc" /><path
       style="fill:none;fill-rule:evenodd;stroke:#000000;stroke-width:1.44869924;stroke-linecap:butt;stroke-linejoin:miter;stroke-miterlimit:4;stroke-dasharray:none;stroke-opacity:1"
       d="m 443.26712,204.18922 22.73235,22.83489"
       id="path1479"
       inkscape:connector-type="polyline"
       inkscape:connector-curvature="0" /></g><path
     style="fill:none;fill-rule:evenodd;stroke:#000000;stroke-width:1.3593266;stroke-linecap:butt;stroke-linejoin:miter;stroke-miterlimit:4;stroke-dasharray:none;stroke-opacity:1"
     d="m 432.2715,216.00405 11.23087,-11.03343"
     id="path1499"
     inkscape:connector-type="polyline"
     inkscape:connector-curvature="0" /></svg>